<mxfile host="app.diagrams.net" agent="Mozilla/5.0 (Windows NT 10.0; Win64; x64) AppleWebKit/537.36 (KHTML, like Gecko) Chrome/131.0.0.0 Safari/537.36" version="24.9.2">
  <diagram name="Page-1" id="0olTwBnBfeLR4Oe-Itnw">
    <mxGraphModel dx="2049" dy="726" grid="0" gridSize="10" guides="1" tooltips="1" connect="1" arrows="1" fold="1" page="0" pageScale="1" pageWidth="850" pageHeight="1100" math="0" shadow="0">
      <root>
        <mxCell id="0" />
        <mxCell id="1" parent="0" />
        <mxCell id="R_0R5g85-nZG9WoKgFVP-25" value="Cutie Baby Shop Activity Diagram" style="shape=table;startSize=30;container=1;collapsible=0;childLayout=tableLayout;" vertex="1" parent="1">
          <mxGeometry x="353" y="476" width="460" height="839.4669047619049" as="geometry" />
        </mxCell>
        <mxCell id="R_0R5g85-nZG9WoKgFVP-26" value="" style="shape=tableRow;horizontal=0;startSize=0;swimlaneHead=0;swimlaneBody=0;strokeColor=inherit;top=0;left=0;bottom=0;right=0;collapsible=0;dropTarget=0;fillColor=none;points=[[0,0.5],[1,0.5]];portConstraint=eastwest;" vertex="1" parent="R_0R5g85-nZG9WoKgFVP-25">
          <mxGeometry y="30" width="460" height="33" as="geometry" />
        </mxCell>
        <mxCell id="R_0R5g85-nZG9WoKgFVP-27" value="User" style="shape=partialRectangle;html=1;whiteSpace=wrap;connectable=0;strokeColor=inherit;overflow=hidden;fillColor=none;top=0;left=0;bottom=0;right=0;pointerEvents=1;" vertex="1" parent="R_0R5g85-nZG9WoKgFVP-26">
          <mxGeometry width="229" height="33" as="geometry">
            <mxRectangle width="229" height="33" as="alternateBounds" />
          </mxGeometry>
        </mxCell>
        <mxCell id="R_0R5g85-nZG9WoKgFVP-28" value="Cutie Baby Shop" style="shape=partialRectangle;html=1;whiteSpace=wrap;connectable=0;strokeColor=inherit;overflow=hidden;fillColor=none;top=0;left=0;bottom=0;right=0;pointerEvents=1;" vertex="1" parent="R_0R5g85-nZG9WoKgFVP-26">
          <mxGeometry x="229" width="231" height="33" as="geometry">
            <mxRectangle width="231" height="33" as="alternateBounds" />
          </mxGeometry>
        </mxCell>
        <mxCell id="R_0R5g85-nZG9WoKgFVP-40" style="shape=tableRow;horizontal=0;startSize=0;swimlaneHead=0;swimlaneBody=0;strokeColor=inherit;top=0;left=0;bottom=0;right=0;collapsible=0;dropTarget=0;fillColor=none;points=[[0,0.5],[1,0.5]];portConstraint=eastwest;" vertex="1" parent="R_0R5g85-nZG9WoKgFVP-25">
          <mxGeometry y="63" width="460" height="776" as="geometry" />
        </mxCell>
        <mxCell id="R_0R5g85-nZG9WoKgFVP-41" style="shape=partialRectangle;html=1;whiteSpace=wrap;connectable=0;strokeColor=inherit;overflow=hidden;fillColor=none;top=0;left=0;bottom=0;right=0;pointerEvents=1;" vertex="1" parent="R_0R5g85-nZG9WoKgFVP-40">
          <mxGeometry width="229" height="776" as="geometry">
            <mxRectangle width="229" height="776" as="alternateBounds" />
          </mxGeometry>
        </mxCell>
        <mxCell id="R_0R5g85-nZG9WoKgFVP-42" style="shape=partialRectangle;html=1;whiteSpace=wrap;connectable=0;strokeColor=inherit;overflow=hidden;fillColor=none;top=0;left=0;bottom=0;right=0;pointerEvents=1;" vertex="1" parent="R_0R5g85-nZG9WoKgFVP-40">
          <mxGeometry x="229" width="231" height="776" as="geometry">
            <mxRectangle width="231" height="776" as="alternateBounds" />
          </mxGeometry>
        </mxCell>
        <mxCell id="R_0R5g85-nZG9WoKgFVP-55" style="edgeStyle=none;curved=1;rounded=0;orthogonalLoop=1;jettySize=auto;html=1;exitX=0.5;exitY=1;exitDx=0;exitDy=0;entryX=0.5;entryY=0;entryDx=0;entryDy=0;fontSize=12;startSize=8;endSize=8;" edge="1" parent="1" source="R_0R5g85-nZG9WoKgFVP-46" target="R_0R5g85-nZG9WoKgFVP-54">
          <mxGeometry relative="1" as="geometry" />
        </mxCell>
        <mxCell id="R_0R5g85-nZG9WoKgFVP-46" value="&lt;font style=&quot;font-size: 11px;&quot;&gt;Shopping&lt;/font&gt;" style="rounded=1;whiteSpace=wrap;html=1;arcSize=50;" vertex="1" parent="1">
          <mxGeometry x="434.31" y="608" width="66.38" height="25" as="geometry" />
        </mxCell>
        <mxCell id="R_0R5g85-nZG9WoKgFVP-49" value="" style="group" vertex="1" connectable="0" parent="1">
          <mxGeometry x="450" y="552" width="35" height="35" as="geometry" />
        </mxCell>
        <mxCell id="R_0R5g85-nZG9WoKgFVP-47" value="" style="ellipse;whiteSpace=wrap;html=1;aspect=fixed;" vertex="1" parent="R_0R5g85-nZG9WoKgFVP-49">
          <mxGeometry width="35" height="35" as="geometry" />
        </mxCell>
        <mxCell id="R_0R5g85-nZG9WoKgFVP-48" value="" style="ellipse;whiteSpace=wrap;html=1;aspect=fixed;fillColor=#0D0D0D;" vertex="1" parent="R_0R5g85-nZG9WoKgFVP-49">
          <mxGeometry x="7.291666666666666" y="7.291666666666666" width="20.416666666666664" height="20.416666666666664" as="geometry" />
        </mxCell>
        <mxCell id="R_0R5g85-nZG9WoKgFVP-50" style="edgeStyle=none;curved=1;rounded=0;orthogonalLoop=1;jettySize=auto;html=1;exitX=0.5;exitY=1;exitDx=0;exitDy=0;entryX=0.5;entryY=0;entryDx=0;entryDy=0;fontSize=12;startSize=8;endSize=8;" edge="1" parent="1" source="R_0R5g85-nZG9WoKgFVP-47" target="R_0R5g85-nZG9WoKgFVP-46">
          <mxGeometry relative="1" as="geometry" />
        </mxCell>
        <mxCell id="R_0R5g85-nZG9WoKgFVP-67" style="edgeStyle=orthogonalEdgeStyle;rounded=0;orthogonalLoop=1;jettySize=auto;html=1;exitX=0;exitY=0.5;exitDx=0;exitDy=0;entryX=0.5;entryY=0;entryDx=0;entryDy=0;fontSize=12;startSize=8;endSize=8;" edge="1" parent="1" source="R_0R5g85-nZG9WoKgFVP-51" target="R_0R5g85-nZG9WoKgFVP-64">
          <mxGeometry relative="1" as="geometry" />
        </mxCell>
        <mxCell id="R_0R5g85-nZG9WoKgFVP-51" value="&lt;span style=&quot;font-size: 11px;&quot;&gt;Can add item&lt;/span&gt;" style="rounded=1;whiteSpace=wrap;html=1;arcSize=50;" vertex="1" parent="1">
          <mxGeometry x="658" y="849" width="83" height="25" as="geometry" />
        </mxCell>
        <mxCell id="R_0R5g85-nZG9WoKgFVP-60" style="edgeStyle=none;curved=1;rounded=0;orthogonalLoop=1;jettySize=auto;html=1;exitX=1;exitY=0.5;exitDx=0;exitDy=0;entryX=0;entryY=0.5;entryDx=0;entryDy=0;fontSize=12;startSize=8;endSize=8;" edge="1" parent="1" source="R_0R5g85-nZG9WoKgFVP-52" target="R_0R5g85-nZG9WoKgFVP-59">
          <mxGeometry relative="1" as="geometry" />
        </mxCell>
        <mxCell id="R_0R5g85-nZG9WoKgFVP-52" value="&lt;span style=&quot;font-size: 11px;&quot;&gt;Register&lt;/span&gt;" style="rounded=1;whiteSpace=wrap;html=1;arcSize=50;" vertex="1" parent="1">
          <mxGeometry x="488" y="703" width="66.38" height="25" as="geometry" />
        </mxCell>
        <mxCell id="R_0R5g85-nZG9WoKgFVP-62" style="edgeStyle=orthogonalEdgeStyle;rounded=0;orthogonalLoop=1;jettySize=auto;html=1;exitX=0.5;exitY=1;exitDx=0;exitDy=0;entryX=0;entryY=0.5;entryDx=0;entryDy=0;fontSize=12;startSize=8;endSize=8;" edge="1" parent="1" source="R_0R5g85-nZG9WoKgFVP-53" target="R_0R5g85-nZG9WoKgFVP-58">
          <mxGeometry relative="1" as="geometry" />
        </mxCell>
        <mxCell id="R_0R5g85-nZG9WoKgFVP-53" value="&lt;span style=&quot;font-size: 11px;&quot;&gt;Login&lt;/span&gt;" style="rounded=1;whiteSpace=wrap;html=1;arcSize=50;" vertex="1" parent="1">
          <mxGeometry x="385.12" y="703" width="66.38" height="25" as="geometry" />
        </mxCell>
        <mxCell id="R_0R5g85-nZG9WoKgFVP-56" style="edgeStyle=orthogonalEdgeStyle;rounded=0;orthogonalLoop=1;jettySize=auto;html=1;exitX=1;exitY=0.5;exitDx=0;exitDy=0;entryX=0.5;entryY=0;entryDx=0;entryDy=0;fontSize=12;startSize=8;endSize=8;" edge="1" parent="1" source="R_0R5g85-nZG9WoKgFVP-54" target="R_0R5g85-nZG9WoKgFVP-52">
          <mxGeometry relative="1" as="geometry" />
        </mxCell>
        <mxCell id="R_0R5g85-nZG9WoKgFVP-57" style="edgeStyle=orthogonalEdgeStyle;rounded=0;orthogonalLoop=1;jettySize=auto;html=1;exitX=0;exitY=0.5;exitDx=0;exitDy=0;entryX=0.5;entryY=0;entryDx=0;entryDy=0;fontSize=12;startSize=8;endSize=8;" edge="1" parent="1" source="R_0R5g85-nZG9WoKgFVP-54" target="R_0R5g85-nZG9WoKgFVP-53">
          <mxGeometry relative="1" as="geometry" />
        </mxCell>
        <mxCell id="R_0R5g85-nZG9WoKgFVP-54" value="" style="rhombus;whiteSpace=wrap;html=1;" vertex="1" parent="1">
          <mxGeometry x="451.5" y="654" width="32" height="32" as="geometry" />
        </mxCell>
        <mxCell id="R_0R5g85-nZG9WoKgFVP-97" style="edgeStyle=none;curved=1;rounded=0;orthogonalLoop=1;jettySize=auto;html=1;exitX=0.5;exitY=1;exitDx=0;exitDy=0;entryX=0.5;entryY=0;entryDx=0;entryDy=0;fontSize=12;startSize=8;endSize=8;" edge="1" parent="1" source="R_0R5g85-nZG9WoKgFVP-58" target="R_0R5g85-nZG9WoKgFVP-95">
          <mxGeometry relative="1" as="geometry" />
        </mxCell>
        <mxCell id="R_0R5g85-nZG9WoKgFVP-58" value="&lt;span style=&quot;font-size: 11px;&quot;&gt;Validate Data&lt;/span&gt;" style="rounded=1;whiteSpace=wrap;html=1;arcSize=50;" vertex="1" parent="1">
          <mxGeometry x="661" y="744" width="78" height="25" as="geometry" />
        </mxCell>
        <mxCell id="R_0R5g85-nZG9WoKgFVP-61" style="edgeStyle=orthogonalEdgeStyle;rounded=0;orthogonalLoop=1;jettySize=auto;html=1;exitX=0.5;exitY=0;exitDx=0;exitDy=0;fontSize=12;startSize=8;endSize=8;" edge="1" parent="1" source="R_0R5g85-nZG9WoKgFVP-59">
          <mxGeometry relative="1" as="geometry">
            <mxPoint x="467.5" y="641.3333333333334" as="targetPoint" />
            <Array as="points">
              <mxPoint x="694" y="641" />
              <mxPoint x="504" y="641" />
            </Array>
          </mxGeometry>
        </mxCell>
        <mxCell id="R_0R5g85-nZG9WoKgFVP-59" value="&lt;span style=&quot;font-size: 11px;&quot;&gt;Save Data&lt;/span&gt;" style="rounded=1;whiteSpace=wrap;html=1;arcSize=50;" vertex="1" parent="1">
          <mxGeometry x="661" y="703" width="77" height="25" as="geometry" />
        </mxCell>
        <mxCell id="R_0R5g85-nZG9WoKgFVP-71" style="edgeStyle=none;curved=1;rounded=0;orthogonalLoop=1;jettySize=auto;html=1;exitX=0.5;exitY=1;exitDx=0;exitDy=0;entryX=0.5;entryY=0;entryDx=0;entryDy=0;fontSize=12;startSize=8;endSize=8;" edge="1" parent="1" source="R_0R5g85-nZG9WoKgFVP-64" target="R_0R5g85-nZG9WoKgFVP-70">
          <mxGeometry relative="1" as="geometry" />
        </mxCell>
        <mxCell id="R_0R5g85-nZG9WoKgFVP-64" value="&lt;span style=&quot;font-size: 11px;&quot;&gt;Shopping Cart&lt;/span&gt;" style="rounded=1;whiteSpace=wrap;html=1;arcSize=50;" vertex="1" parent="1">
          <mxGeometry x="426" y="885" width="83" height="25" as="geometry" />
        </mxCell>
        <mxCell id="R_0R5g85-nZG9WoKgFVP-69" style="edgeStyle=none;curved=1;rounded=0;orthogonalLoop=1;jettySize=auto;html=1;exitX=0;exitY=0.5;exitDx=0;exitDy=0;entryX=1;entryY=0.5;entryDx=0;entryDy=0;fontSize=12;startSize=8;endSize=8;" edge="1" parent="1" source="R_0R5g85-nZG9WoKgFVP-68" target="R_0R5g85-nZG9WoKgFVP-64">
          <mxGeometry relative="1" as="geometry" />
        </mxCell>
        <mxCell id="R_0R5g85-nZG9WoKgFVP-84" style="edgeStyle=orthogonalEdgeStyle;rounded=0;orthogonalLoop=1;jettySize=auto;html=1;exitX=1;exitY=0.5;exitDx=0;exitDy=0;entryX=1;entryY=0.5;entryDx=0;entryDy=0;fontSize=12;startSize=8;endSize=8;dashed=1;" edge="1" parent="1" source="R_0R5g85-nZG9WoKgFVP-68" target="R_0R5g85-nZG9WoKgFVP-80">
          <mxGeometry relative="1" as="geometry">
            <Array as="points">
              <mxPoint x="787" y="898" />
              <mxPoint x="787" y="1130" />
            </Array>
          </mxGeometry>
        </mxCell>
        <mxCell id="R_0R5g85-nZG9WoKgFVP-68" value="&lt;span style=&quot;font-size: 11px;&quot;&gt;Update Item Data&lt;/span&gt;" style="rounded=1;whiteSpace=wrap;html=1;arcSize=50;" vertex="1" parent="1">
          <mxGeometry x="658.5" y="885" width="83" height="25" as="geometry" />
        </mxCell>
        <mxCell id="R_0R5g85-nZG9WoKgFVP-74" style="edgeStyle=none;curved=1;rounded=0;orthogonalLoop=1;jettySize=auto;html=1;exitX=0.5;exitY=1;exitDx=0;exitDy=0;entryX=0.5;entryY=0;entryDx=0;entryDy=0;fontSize=12;startSize=8;endSize=8;" edge="1" parent="1" source="R_0R5g85-nZG9WoKgFVP-70" target="R_0R5g85-nZG9WoKgFVP-72">
          <mxGeometry relative="1" as="geometry" />
        </mxCell>
        <mxCell id="R_0R5g85-nZG9WoKgFVP-70" value="&lt;span style=&quot;font-size: 11px;&quot;&gt;Checkout&lt;/span&gt;" style="rounded=1;whiteSpace=wrap;html=1;arcSize=50;" vertex="1" parent="1">
          <mxGeometry x="426" y="937" width="83" height="25" as="geometry" />
        </mxCell>
        <mxCell id="R_0R5g85-nZG9WoKgFVP-76" style="edgeStyle=none;curved=1;rounded=0;orthogonalLoop=1;jettySize=auto;html=1;exitX=0.5;exitY=1;exitDx=0;exitDy=0;entryX=0.5;entryY=0;entryDx=0;entryDy=0;fontSize=12;startSize=8;endSize=8;" edge="1" parent="1" source="R_0R5g85-nZG9WoKgFVP-72" target="R_0R5g85-nZG9WoKgFVP-75">
          <mxGeometry relative="1" as="geometry" />
        </mxCell>
        <mxCell id="R_0R5g85-nZG9WoKgFVP-72" value="&lt;span style=&quot;font-size: 11px;&quot;&gt;Select Shipping Option and Payment&lt;/span&gt;" style="rounded=1;whiteSpace=wrap;html=1;arcSize=50;" vertex="1" parent="1">
          <mxGeometry x="402.5" y="989" width="130" height="31" as="geometry" />
        </mxCell>
        <mxCell id="R_0R5g85-nZG9WoKgFVP-78" style="edgeStyle=none;curved=1;rounded=0;orthogonalLoop=1;jettySize=auto;html=1;exitX=1;exitY=0.5;exitDx=0;exitDy=0;entryX=0;entryY=0.5;entryDx=0;entryDy=0;fontSize=12;startSize=8;endSize=8;" edge="1" parent="1" source="R_0R5g85-nZG9WoKgFVP-75" target="R_0R5g85-nZG9WoKgFVP-77">
          <mxGeometry relative="1" as="geometry" />
        </mxCell>
        <mxCell id="R_0R5g85-nZG9WoKgFVP-75" value="&lt;span style=&quot;font-size: 11px;&quot;&gt;Process Transaction&lt;/span&gt;" style="rounded=1;whiteSpace=wrap;html=1;arcSize=50;" vertex="1" parent="1">
          <mxGeometry x="402.5" y="1047" width="130" height="31" as="geometry" />
        </mxCell>
        <mxCell id="R_0R5g85-nZG9WoKgFVP-83" style="edgeStyle=none;curved=1;rounded=0;orthogonalLoop=1;jettySize=auto;html=1;exitX=0.5;exitY=1;exitDx=0;exitDy=0;entryX=0.5;entryY=0;entryDx=0;entryDy=0;fontSize=12;startSize=8;endSize=8;" edge="1" parent="1" source="R_0R5g85-nZG9WoKgFVP-77" target="R_0R5g85-nZG9WoKgFVP-80">
          <mxGeometry relative="1" as="geometry" />
        </mxCell>
        <mxCell id="R_0R5g85-nZG9WoKgFVP-94" style="edgeStyle=none;curved=1;rounded=0;orthogonalLoop=1;jettySize=auto;html=1;exitX=0.5;exitY=0;exitDx=0;exitDy=0;entryX=0.5;entryY=1;entryDx=0;entryDy=0;fontSize=12;startSize=8;endSize=8;dashed=1;" edge="1" parent="1" source="R_0R5g85-nZG9WoKgFVP-77" target="R_0R5g85-nZG9WoKgFVP-68">
          <mxGeometry relative="1" as="geometry" />
        </mxCell>
        <mxCell id="R_0R5g85-nZG9WoKgFVP-77" value="&lt;span style=&quot;font-size: 11px;&quot;&gt;User Data Process and Send Item&lt;/span&gt;" style="rounded=1;whiteSpace=wrap;html=1;arcSize=50;" vertex="1" parent="1">
          <mxGeometry x="634.5" y="1047" width="130" height="31" as="geometry" />
        </mxCell>
        <mxCell id="R_0R5g85-nZG9WoKgFVP-86" style="edgeStyle=orthogonalEdgeStyle;rounded=0;orthogonalLoop=1;jettySize=auto;html=1;exitX=0.5;exitY=1;exitDx=0;exitDy=0;entryX=1;entryY=0.5;entryDx=0;entryDy=0;fontSize=12;startSize=8;endSize=8;" edge="1" parent="1" source="R_0R5g85-nZG9WoKgFVP-80" target="R_0R5g85-nZG9WoKgFVP-85">
          <mxGeometry relative="1" as="geometry" />
        </mxCell>
        <mxCell id="R_0R5g85-nZG9WoKgFVP-80" value="&lt;span style=&quot;font-size: 11px;&quot;&gt;Shipping Status&lt;/span&gt;" style="rounded=1;whiteSpace=wrap;html=1;arcSize=50;" vertex="1" parent="1">
          <mxGeometry x="634.5" y="1114" width="130" height="31" as="geometry" />
        </mxCell>
        <mxCell id="R_0R5g85-nZG9WoKgFVP-82" style="edgeStyle=none;curved=1;rounded=0;orthogonalLoop=1;jettySize=auto;html=1;exitX=1;exitY=0.5;exitDx=0;exitDy=0;entryX=0;entryY=0.5;entryDx=0;entryDy=0;fontSize=12;startSize=8;endSize=8;" edge="1" parent="1" source="R_0R5g85-nZG9WoKgFVP-81" target="R_0R5g85-nZG9WoKgFVP-80">
          <mxGeometry relative="1" as="geometry" />
        </mxCell>
        <mxCell id="R_0R5g85-nZG9WoKgFVP-81" value="&lt;span style=&quot;font-size: 11px;&quot;&gt;Check Item Status&lt;/span&gt;" style="rounded=1;whiteSpace=wrap;html=1;arcSize=50;" vertex="1" parent="1">
          <mxGeometry x="405.5" y="1114" width="130" height="31" as="geometry" />
        </mxCell>
        <mxCell id="R_0R5g85-nZG9WoKgFVP-91" style="edgeStyle=none;curved=1;rounded=0;orthogonalLoop=1;jettySize=auto;html=1;exitX=0.5;exitY=1;exitDx=0;exitDy=0;entryX=0.5;entryY=0;entryDx=0;entryDy=0;fontSize=12;startSize=8;endSize=8;" edge="1" parent="1" source="R_0R5g85-nZG9WoKgFVP-85" target="R_0R5g85-nZG9WoKgFVP-88">
          <mxGeometry relative="1" as="geometry" />
        </mxCell>
        <mxCell id="R_0R5g85-nZG9WoKgFVP-85" value="&lt;span style=&quot;font-size: 11px;&quot;&gt;Receive Product&lt;/span&gt;" style="rounded=1;whiteSpace=wrap;html=1;arcSize=50;" vertex="1" parent="1">
          <mxGeometry x="405.5" y="1178" width="130" height="31" as="geometry" />
        </mxCell>
        <mxCell id="R_0R5g85-nZG9WoKgFVP-87" value="" style="group" vertex="1" connectable="0" parent="1">
          <mxGeometry x="452" y="1244" width="35" height="35" as="geometry" />
        </mxCell>
        <mxCell id="R_0R5g85-nZG9WoKgFVP-88" value="" style="ellipse;whiteSpace=wrap;html=1;aspect=fixed;" vertex="1" parent="R_0R5g85-nZG9WoKgFVP-87">
          <mxGeometry width="35" height="35" as="geometry" />
        </mxCell>
        <mxCell id="R_0R5g85-nZG9WoKgFVP-89" value="" style="ellipse;whiteSpace=wrap;html=1;aspect=fixed;fillColor=#0D0D0D;" vertex="1" parent="R_0R5g85-nZG9WoKgFVP-87">
          <mxGeometry x="7.291666666666666" y="7.291666666666666" width="20.416666666666664" height="20.416666666666664" as="geometry" />
        </mxCell>
        <mxCell id="R_0R5g85-nZG9WoKgFVP-98" style="edgeStyle=none;curved=1;rounded=0;orthogonalLoop=1;jettySize=auto;html=1;exitX=0.5;exitY=1;exitDx=0;exitDy=0;entryX=0.5;entryY=0;entryDx=0;entryDy=0;fontSize=12;startSize=8;endSize=8;" edge="1" parent="1" source="R_0R5g85-nZG9WoKgFVP-95" target="R_0R5g85-nZG9WoKgFVP-51">
          <mxGeometry relative="1" as="geometry" />
        </mxCell>
        <mxCell id="R_0R5g85-nZG9WoKgFVP-99" style="edgeStyle=orthogonalEdgeStyle;rounded=0;orthogonalLoop=1;jettySize=auto;html=1;exitX=0;exitY=0.5;exitDx=0;exitDy=0;entryX=0;entryY=0.5;entryDx=0;entryDy=0;fontSize=12;startSize=8;endSize=8;" edge="1" parent="1" source="R_0R5g85-nZG9WoKgFVP-95" target="R_0R5g85-nZG9WoKgFVP-53">
          <mxGeometry relative="1" as="geometry" />
        </mxCell>
        <mxCell id="R_0R5g85-nZG9WoKgFVP-95" value="" style="rhombus;whiteSpace=wrap;html=1;" vertex="1" parent="1">
          <mxGeometry x="683.5" y="790" width="32" height="32" as="geometry" />
        </mxCell>
      </root>
    </mxGraphModel>
  </diagram>
</mxfile>
